<svg viewBox="0 0 60 32" fill="none" xmlns="http://www.w3.org/2000/svg"><path d="M2.25 16.024 2.228 16l.022-.024c.377-.427.937-1.039 1.66-1.776a57.093 57.093 0 0 1 6.125-5.404C15.23 4.85 22.287 1 30.001 1c7.713 0 14.772 3.85 19.965 7.796a57.089 57.089 0 0 1 6.126 5.404 47.849 47.849 0 0 1 1.66 1.776l.022.024-.022.024a47.849 47.849 0 0 1-1.66 1.776 57.092 57.092 0 0 1-6.126 5.404C44.773 27.15 37.714 31 30.001 31c-7.714 0-14.772-3.85-19.966-7.796A57.096 57.096 0 0 1 3.91 17.8a47.924 47.924 0 0 1-1.66-1.776Z" stroke="#fff" stroke-width="2"/><path d="M39.372 16.23c0 4.828-3.908 8.74-8.724 8.74-4.817 0-8.724-3.912-8.724-8.74s3.907-8.739 8.724-8.739c4.816 0 8.724 3.911 8.724 8.74Z" stroke="#fff" stroke-width="2"/></svg>